<svg xmlns="http://www.w3.org/2000/svg" viewBox="0 0 800 1200">
  <defs>
    <linearGradient id="bg" x1="0%" y1="0%" x2="100%" y2="100%">
      <stop offset="0%" stop-color="#180c31"/>
      <stop offset="100%" stop-color="#6d4ccf"/>
    </linearGradient>
  </defs>
  <rect width="800" height="1200" rx="52" fill="url(#bg)"/>
  <rect x="90" y="76" width="620" height="1048" rx="36" fill="none" stroke="#d6b25e" stroke-width="10" opacity=".66"/>
  <circle cx="400" cy="310" r="220" fill="#f4c8ff" opacity=".16"/>
  <ellipse cx="400" cy="430" rx="172" ry="198" fill="#f3dfc1"/>
  <path d="M284 318l74-124 42 142Z" fill="#f4c8ff" opacity=".75"/>
  <path d="M516 318l-74-124-42 142Z" fill="#f4c8ff" opacity=".75"/>
  <path d="M214 968c106-142 164-214 186-214s80 72 186 214v158H214Z" fill="#140920"/>
  <path d="M264 930c38-36 83-54 136-54s98 18 136 54" stroke="#d6b25e" stroke-width="16" fill="none"/>
  <text x="400" y="1066" fill="#ffffff" font-family="Georgia, serif" font-size="54" text-anchor="middle">Mock Result Portrait</text>
  <text x="400" y="1114" fill="#f6deb0" font-family="Arial, sans-serif" font-size="24" text-anchor="middle">Backend-ready UI scaffold</text>
</svg>
